<svg width="40" height="40" viewBox="0 0 40 40" fill="none" xmlns="http://www.w3.org/2000/svg">
<path d="M20 38C29.9411 38 38 29.9411 38 20C38 10.0589 29.9411 2 20 2C10.0589 2 2 10.0589 2 20C2 29.9411 10.0589 38 20 38Z" fill="#43619B"/>
<path fill-rule="evenodd" clip-rule="evenodd" d="M23.3519 12.7052C23.3519 13.542 23.3519 14.3624 23.3519 15.204C23.1583 15.204 22.9707 15.204 22.7827 15.204C22.4355 15.204 22.0887 15.202 21.7419 15.2044C21.3599 15.2076 21.1075 15.4064 21.0903 15.7808C21.0659 16.3212 21.0843 16.8628 21.0843 17.424C21.8555 17.424 22.6179 17.424 23.3955 17.424C23.3055 18.2952 23.2187 19.144 23.1299 20.0104C22.4431 20.0104 21.7687 20.0104 21.0791 20.0104C21.0791 22.4532 21.0791 24.8768 21.0791 27.312C20.0607 27.312 19.0587 27.312 18.0371 27.312C18.0371 24.8788 18.0371 22.4544 18.0371 20.0128C17.5507 20.0128 17.0827 20.0128 16.6035 20.0128C16.6035 19.1484 16.6035 18.3012 16.6035 17.43C17.0751 17.43 17.5459 17.43 18.0379 17.43C18.0379 17.3416 18.0375 17.2768 18.0383 17.2116C18.0443 16.6076 18.0167 16.0016 18.0639 15.4012C18.1407 14.422 18.5303 13.6004 19.4163 13.0836C19.8715 12.8176 20.3739 12.7044 20.8923 12.6952C21.6859 12.6804 22.4803 12.6936 23.2735 12.6952C23.2959 12.6952 23.3171 12.7004 23.3519 12.7052Z" fill="white"/>
</svg>
