<svg width="36" height="36" viewBox="0 0 36 36" fill="none" xmlns="http://www.w3.org/2000/svg">
<path d="M18.017 14.9181C19.7357 14.9119 21.1047 13.5312 21.0984 11.8087C21.0921 10.0855 19.7203 8.71437 18.0007 8.71289C16.2669 8.71105 14.8821 10.1076 14.8954 11.8463C14.9082 13.5625 16.2926 14.9244 18.017 14.9181Z" fill="#ED8936"/>
<path d="M18 0C8.05884 0 0 8.05921 0 18C0 27.9408 8.05884 36 18 36C27.9412 36 36 27.9408 36 18C36 8.05921 27.9412 0 18 0ZM18.0258 5.47384C21.5319 5.48342 24.3459 8.35126 24.3279 11.896C24.3102 15.359 21.4501 18.1657 17.9499 18.1539C14.4854 18.1422 11.6441 15.2699 11.6647 11.7999C11.6843 8.29197 14.5271 5.46427 18.0258 5.47384ZM25.1271 20.645C24.3518 21.4409 23.4186 22.0169 22.3822 22.4187C21.4026 22.7984 20.329 22.9895 19.2662 23.117C19.4271 23.2915 19.5026 23.3773 19.6028 23.4775C21.045 24.9275 22.4942 26.37 23.9316 27.824C24.4214 28.3198 24.5235 28.9341 24.2539 29.5097C23.9596 30.1395 23.2993 30.5534 22.6515 30.5088C22.2412 30.4805 21.9211 30.2768 21.6372 29.9907C20.5485 28.8954 19.4393 27.8196 18.3734 26.7037C18.0622 26.3789 17.9135 26.4408 17.6391 26.7229C16.5442 27.8506 15.4312 28.9602 14.312 30.064C13.8093 30.5597 13.2112 30.6495 12.6278 30.366C12.008 30.0662 11.6139 29.4331 11.6441 28.7963C11.6655 28.3669 11.8769 28.0376 12.1722 27.7438C13.6001 26.3189 15.0235 24.8895 16.4473 23.4613C16.542 23.3667 16.6296 23.2661 16.767 23.1188C14.825 22.9159 13.0738 22.4379 11.5745 21.2656C11.3882 21.1198 11.1963 20.9791 11.0269 20.8155C10.3702 20.1854 10.3043 19.4632 10.8232 18.72C11.2677 18.0836 12.0131 17.9135 12.7884 18.2792C12.9386 18.3495 13.0815 18.4386 13.2185 18.5329C16.0124 20.4528 19.8506 20.5055 22.6555 18.6187C22.9332 18.4066 23.2304 18.232 23.5748 18.144C24.2436 17.9716 24.8682 18.218 25.2269 18.8036C25.6375 19.4728 25.6327 20.1254 25.1271 20.645Z" fill="#ED8936"/>
</svg>
