<svg width="20" height="20" viewBox="0 0 20 20" fill="none" xmlns="http://www.w3.org/2000/svg">
<g clip-path="url(#clip0)">
<path d="M2.59259 20C4.02444 20 5.18518 18.8393 5.18518 17.4074C5.18518 15.9756 4.02444 14.8148 2.59259 14.8148C1.16074 14.8148 0 15.9756 0 17.4074C0 18.8393 1.16074 20 2.59259 20Z" fill="#ED8936"/>
<path d="M9.99982 20C11.4317 20 12.5924 18.8393 12.5924 17.4074C12.5924 15.9756 11.4317 14.8148 9.99982 14.8148C8.56797 14.8148 7.40723 15.9756 7.40723 17.4074C7.40723 18.8393 8.56797 20 9.99982 20Z" fill="#ED8936"/>
<path d="M17.4075 20C18.8394 20 20.0001 18.8393 20.0001 17.4074C20.0001 15.9756 18.8394 14.8148 17.4075 14.8148C15.9757 14.8148 14.8149 15.9756 14.8149 17.4074C14.8149 18.8393 15.9757 20 17.4075 20Z" fill="#ED8936"/>
<path d="M2.59259 12.5926C4.02444 12.5926 5.18518 11.4319 5.18518 10C5.18518 8.56815 4.02444 7.40741 2.59259 7.40741C1.16074 7.40741 0 8.56815 0 10C0 11.4319 1.16074 12.5926 2.59259 12.5926Z" fill="#ED8936"/>
<path d="M9.99982 12.5926C11.4317 12.5926 12.5924 11.4319 12.5924 10C12.5924 8.56815 11.4317 7.40741 9.99982 7.40741C8.56797 7.40741 7.40723 8.56815 7.40723 10C7.40723 11.4319 8.56797 12.5926 9.99982 12.5926Z" fill="#ED8936"/>
<path d="M17.4075 12.5926C18.8394 12.5926 20.0001 11.4319 20.0001 10C20.0001 8.56815 18.8394 7.40741 17.4075 7.40741C15.9757 7.40741 14.8149 8.56815 14.8149 10C14.8149 11.4319 15.9757 12.5926 17.4075 12.5926Z" fill="#ED8936"/>
<path d="M2.59259 5.18518C4.02444 5.18518 5.18518 4.02444 5.18518 2.59259C5.18518 1.16074 4.02444 0 2.59259 0C1.16074 0 0 1.16074 0 2.59259C0 4.02444 1.16074 5.18518 2.59259 5.18518Z" fill="#ED8936"/>
<path d="M9.99982 5.18518C11.4317 5.18518 12.5924 4.02444 12.5924 2.59259C12.5924 1.16074 11.4317 0 9.99982 0C8.56797 0 7.40723 1.16074 7.40723 2.59259C7.40723 4.02444 8.56797 5.18518 9.99982 5.18518Z" fill="#ED8936"/>
<path d="M17.4075 5.18518C18.8394 5.18518 20.0001 4.02444 20.0001 2.59259C20.0001 1.16074 18.8394 0 17.4075 0C15.9757 0 14.8149 1.16074 14.8149 2.59259C14.8149 4.02444 15.9757 5.18518 17.4075 5.18518Z" fill="#ED8936"/>
</g>
<defs>
<clipPath id="clip0">
<rect width="20" height="20" fill="white"/>
</clipPath>
</defs>
</svg>
