<svg width="26" height="26" viewBox="0 0 26 26" fill="none" xmlns="http://www.w3.org/2000/svg">
<path d="M24.7032 22.441H7.31712C6.60055 22.441 6.01978 21.8602 6.01978 21.1436C6.01978 20.4271 6.60055 19.8463 7.31712 19.8463H24.7028C25.4193 19.8463 26.0001 20.4271 26.0001 21.1436C26.0001 21.8602 25.4198 22.441 24.7032 22.441Z" fill="white"/>
<path d="M24.7032 14.2976H7.31712C6.60055 14.2976 6.01978 13.7168 6.01978 13.0002C6.01978 12.2837 6.60055 11.7029 7.31712 11.7029H24.7028C25.4193 11.7029 26.0001 12.2837 26.0001 13.0002C26.0005 13.7168 25.4198 14.2976 24.7032 14.2976Z" fill="white"/>
<path d="M24.7032 6.15416H7.31712C6.60055 6.15416 6.01978 5.57338 6.01978 4.85682C6.01978 4.14025 6.60055 3.55948 7.31712 3.55948H24.7028C25.4193 3.55948 26.0001 4.14025 26.0001 4.85682C26.0001 5.57338 25.4198 6.15416 24.7032 6.15416Z" fill="white"/>
<path d="M1.74233 6.69947C2.70459 6.69947 3.48466 5.9194 3.48466 4.95714C3.48466 3.99488 2.70459 3.21481 1.74233 3.21481C0.780067 3.21481 0 3.99488 0 4.95714C0 5.9194 0.780067 6.69947 1.74233 6.69947Z" fill="white"/>
<path d="M1.74233 14.7426C2.70459 14.7426 3.48466 13.9625 3.48466 13.0002C3.48466 12.038 2.70459 11.2579 1.74233 11.2579C0.780067 11.2579 0 12.038 0 13.0002C0 13.9625 0.780067 14.7426 1.74233 14.7426Z" fill="white"/>
<path d="M1.74233 22.7856C2.70459 22.7856 3.48466 22.0056 3.48466 21.0433C3.48466 20.081 2.70459 19.301 1.74233 19.301C0.780067 19.301 0 20.081 0 21.0433C0 22.0056 0.780067 22.7856 1.74233 22.7856Z" fill="white"/>
</svg>
