<svg width="30" height="20" viewBox="0 0 30 20" fill="none" xmlns="http://www.w3.org/2000/svg">
<g clip-path="url(#clip0)">
<path d="M11.768 0.731986C12.7443 1.70829 12.7443 3.29121 11.768 4.26752C10.7917 5.24382 9.20878 5.24382 8.23247 4.26752C7.25617 3.29121 7.25617 1.70829 8.23247 0.731986C9.20874 -0.244321 10.7916 -0.244321 11.768 0.731986Z" fill="white"/>
<path d="M11.768 8.23226C12.7443 9.20856 12.7443 10.7915 11.768 11.7678C10.7917 12.7441 9.20878 12.7441 8.23247 11.7678C7.25617 10.7915 7.25617 9.20856 8.23247 8.23226C9.20874 7.25595 10.7916 7.25595 11.768 8.23226Z" fill="white"/>
<path d="M11.768 15.7322C12.7443 16.7085 12.7443 18.2914 11.768 19.2677C10.7917 20.244 9.20878 20.244 8.23247 19.2677C7.25617 18.2914 7.25617 16.7085 8.23247 15.7322C9.20874 14.7559 10.7916 14.7559 11.768 15.7322Z" fill="white"/>
</g>
<g clip-path="url(#clip1)">
<path d="M21.768 0.731986C22.7443 1.70829 22.7443 3.29121 21.768 4.26752C20.7917 5.24382 19.2088 5.24382 18.2325 4.26752C17.2562 3.29121 17.2562 1.70829 18.2325 0.731986C19.2087 -0.244321 20.7916 -0.244321 21.768 0.731986Z" fill="white"/>
<path d="M21.768 8.23226C22.7443 9.20856 22.7443 10.7915 21.768 11.7678C20.7917 12.7441 19.2088 12.7441 18.2325 11.7678C17.2562 10.7915 17.2562 9.20856 18.2325 8.23226C19.2087 7.25595 20.7916 7.25595 21.768 8.23226Z" fill="white"/>
<path d="M21.768 15.7322C22.7443 16.7085 22.7443 18.2914 21.768 19.2677C20.7917 20.244 19.2088 20.244 18.2325 19.2677C17.2562 18.2914 17.2562 16.7085 18.2325 15.7322C19.2087 14.7559 20.7916 14.7559 21.768 15.7322Z" fill="white"/>
</g>
<defs>
<clipPath id="clip0">
<rect width="20" height="20" fill="white"/>
</clipPath>
<clipPath id="clip1">
<rect x="10" width="20" height="20" fill="white"/>
</clipPath>
</defs>
</svg>
