<svg width="40" height="40" viewBox="0 0 40 40" fill="none" xmlns="http://www.w3.org/2000/svg">
<path d="M20 38C29.9411 38 38 29.9411 38 20C38 10.0589 29.9411 2 20 2C10.0589 2 2 10.0589 2 20C2 29.9411 10.0589 38 20 38Z" fill="#139BD0"/>
<path fill-rule="evenodd" clip-rule="evenodd" d="M20.5898 24.3016C19.8966 24.9768 19.2094 25.6408 18.5286 26.31C18.2906 26.5444 18.023 26.674 17.6814 26.656C17.4482 26.6436 17.3178 26.5412 17.2462 26.32C16.7246 24.7012 16.1954 23.0864 15.6766 21.466C15.6262 21.3088 15.5518 21.2324 15.3926 21.1832C14.1638 20.808 12.9374 20.424 11.713 20.0348C11.5246 19.9748 11.3346 19.8964 11.1718 19.7856C10.9202 19.6152 10.8834 19.3372 11.109 19.1372C11.3174 18.9528 11.5662 18.792 11.8246 18.6896C13.3266 18.0944 14.8366 17.5184 16.3442 16.9372C20.1702 15.46 23.9962 13.984 27.8226 12.5068C28.5502 12.2256 29.1094 12.6216 29.0338 13.4084C28.9854 13.9116 28.855 14.4068 28.7498 14.9036C27.919 18.8264 27.0874 22.7496 26.2522 26.6716C26.0538 27.6028 25.3998 27.846 24.6334 27.2808C23.3498 26.3348 22.0674 25.3856 20.7846 24.438C20.7234 24.3936 20.6598 24.3508 20.5898 24.3016ZM17.7086 25.4928C17.723 25.4888 17.7374 25.4848 17.7518 25.4812C17.7598 25.4444 17.7714 25.4084 17.7746 25.372C17.857 24.4828 17.9442 23.594 18.0158 22.7032C18.0318 22.5048 18.0998 22.364 18.249 22.2304C19.4322 21.1724 20.6082 20.1076 21.7866 19.0452C23.091 17.8688 24.3958 16.6936 25.6954 15.5124C25.7758 15.4396 25.8094 15.3156 25.8646 15.2148C25.7422 15.2016 25.611 15.1524 25.4998 15.1812C25.3482 15.2204 25.2046 15.3084 25.0694 15.3936C22.1906 17.2068 19.3142 19.0232 16.4334 20.8328C16.2706 20.9352 16.2402 21.022 16.3022 21.2008C16.5146 21.8108 16.7078 22.4264 16.9082 23.0408C17.175 23.8584 17.4418 24.6756 17.7086 25.4928Z" fill="white"/>
</svg>
