<svg width="40" height="40" viewBox="0 0 40 40" fill="none" xmlns="http://www.w3.org/2000/svg">
<path d="M20 38C29.9411 38 38 29.9411 38 20C38 10.0589 29.9411 2 20 2C10.0589 2 2 10.0589 2 20C2 29.9411 10.0589 38 20 38Z" fill="#4D76A1"/>
<path fill-rule="evenodd" clip-rule="evenodd" d="M19.32 27.8946H20.7328C20.7328 27.8946 21.1595 27.8477 21.3774 27.6129C21.5779 27.3972 21.5715 26.9923 21.5715 26.9923C21.5715 26.9923 21.5439 25.0966 22.4237 24.8175C23.291 24.5425 24.4048 26.6496 25.5852 27.4598C26.4779 28.073 27.1562 27.9385 27.1562 27.9385L30.3126 27.8946C30.3126 27.8946 31.9637 27.7929 31.1808 26.4946C31.1167 26.3884 30.7249 25.5343 28.834 23.7791C26.8549 21.9422 27.1199 22.2393 29.504 19.0618C30.9559 17.1266 31.5364 15.9452 31.3551 15.4392C31.1821 14.9572 30.1143 15.0846 30.1143 15.0846L26.5603 15.1068C26.5603 15.1068 26.2969 15.0708 26.1015 15.1876C25.9106 15.3022 25.7877 15.5691 25.7877 15.5691C25.7877 15.5691 25.2252 17.0666 24.475 18.3401C22.8925 21.0274 22.2598 21.1692 22.0011 21.0024C21.3995 20.6135 21.5497 19.4401 21.5497 18.6064C21.5497 16.0023 21.9447 14.9165 20.7806 14.6354C20.3942 14.542 20.11 14.4804 19.122 14.4705C17.8539 14.4573 16.7806 14.4743 16.1729 14.7721C15.7686 14.9701 15.4567 15.4113 15.6467 15.4366C15.8816 15.468 16.4136 15.58 16.6956 15.9641C17.0598 16.4595 17.047 17.5723 17.047 17.5723C17.047 17.5723 17.2562 20.6379 16.5583 21.0187C16.0792 21.2799 15.4221 20.7466 14.0112 18.3087C13.2883 17.0599 12.7425 15.6795 12.7425 15.6795C12.7425 15.6795 12.6373 15.4215 12.4496 15.2835C12.2218 15.1164 11.9035 15.0631 11.9035 15.0631L8.52633 15.0853C8.52633 15.0853 8.01936 15.0994 7.83326 15.3198C7.66769 15.5159 7.82011 15.9214 7.82011 15.9214C7.82011 15.9214 10.4641 22.1071 13.4577 25.2243C16.2028 28.0823 19.32 27.8946 19.32 27.8946Z" fill="white"/>
</svg>
